<mxfile host="65bd71144e">
    <diagram id="DAjZJu0qBJgIDJ5n-w6k" name="Page-1">
        <mxGraphModel dx="1005" dy="-3228" grid="1" gridSize="10" guides="1" tooltips="1" connect="1" arrows="1" fold="1" page="1" pageScale="1" pageWidth="850" pageHeight="1100" math="0" shadow="0">
            <root>
                <mxCell id="0"/>
                <mxCell id="1" parent="0"/>
                <mxCell id="3" value="" style="edgeStyle=none;orthogonalLoop=1;jettySize=auto;html=1;dashed=1;endArrow=none;endFill=0;" parent="1" edge="1">
                    <mxGeometry width="80" relative="1" as="geometry">
                        <mxPoint x="-30.799999999999955" y="4399.25" as="sourcePoint"/>
                        <mxPoint x="-30" y="4630" as="targetPoint"/>
                        <Array as="points"/>
                    </mxGeometry>
                </mxCell>
                <mxCell id="5" value="" style="edgeStyle=none;orthogonalLoop=1;jettySize=auto;html=1;dashed=1;endArrow=none;endFill=0;" parent="1" edge="1">
                    <mxGeometry width="80" relative="1" as="geometry">
                        <mxPoint x="208.18000000000006" y="4399.87" as="sourcePoint"/>
                        <mxPoint x="211" y="4630" as="targetPoint"/>
                        <Array as="points"/>
                    </mxGeometry>
                </mxCell>
                <mxCell id="6" value="" style="edgeStyle=none;orthogonalLoop=1;jettySize=auto;html=1;dashed=1;endArrow=none;endFill=0;" parent="1" edge="1">
                    <mxGeometry width="80" relative="1" as="geometry">
                        <mxPoint x="329" y="4397.75" as="sourcePoint"/>
                        <mxPoint x="330" y="4630" as="targetPoint"/>
                        <Array as="points"/>
                    </mxGeometry>
                </mxCell>
                <mxCell id="9" value="&lt;font style=&quot;font-size: 8px;&quot;&gt;Request_borrow()&lt;/font&gt;" style="text;html=1;align=center;verticalAlign=middle;resizable=0;points=[];autosize=1;strokeColor=none;fillColor=none;" parent="1" vertex="1">
                    <mxGeometry x="-13.5" y="4388.25" width="90" height="30" as="geometry"/>
                </mxCell>
                <mxCell id="11" value="" style="edgeStyle=none;orthogonalLoop=1;jettySize=auto;html=1;" parent="1" edge="1">
                    <mxGeometry width="80" relative="1" as="geometry">
                        <mxPoint x="-27.5" y="4412.25" as="sourcePoint"/>
                        <mxPoint x="95.5" y="4412.25" as="targetPoint"/>
                        <Array as="points"/>
                    </mxGeometry>
                </mxCell>
                <mxCell id="14" value="" style="edgeStyle=none;orthogonalLoop=1;jettySize=auto;html=1;" parent="1" edge="1">
                    <mxGeometry width="80" relative="1" as="geometry">
                        <mxPoint x="-28" y="4460" as="sourcePoint"/>
                        <mxPoint x="212" y="4460" as="targetPoint"/>
                        <Array as="points"/>
                    </mxGeometry>
                </mxCell>
                <mxCell id="16" value="" style="edgeStyle=none;orthogonalLoop=1;jettySize=auto;html=1;" parent="1" edge="1">
                    <mxGeometry width="80" relative="1" as="geometry">
                        <mxPoint x="213" y="4530" as="sourcePoint"/>
                        <mxPoint x="330" y="4530" as="targetPoint"/>
                        <Array as="points"/>
                    </mxGeometry>
                </mxCell>
                <mxCell id="27" value="" style="group" parent="1" vertex="1" connectable="0">
                    <mxGeometry x="-70" y="4350" width="90" height="44.99666666666667" as="geometry"/>
                </mxCell>
                <mxCell id="26" value="" style="rounded=0;whiteSpace=wrap;html=1;shadow=0;" parent="27" vertex="1">
                    <mxGeometry width="90" height="41.75" as="geometry"/>
                </mxCell>
                <mxCell id="4" value="&lt;div&gt;Reader&lt;/div&gt;" style="text;html=1;align=center;verticalAlign=middle;resizable=0;points=[];autosize=1;strokeColor=none;fillColor=none;" parent="27" vertex="1">
                    <mxGeometry x="15" y="14.996666666666666" width="60" height="30" as="geometry"/>
                </mxCell>
                <mxCell id="29" value="" style="edgeStyle=orthogonalEdgeStyle;orthogonalLoop=1;jettySize=auto;html=1;dashed=1;endArrow=none;endFill=0;curved=1;" parent="1" edge="1">
                    <mxGeometry width="80" relative="1" as="geometry">
                        <mxPoint x="100.5" y="4388.25" as="sourcePoint"/>
                        <mxPoint x="101" y="4630" as="targetPoint"/>
                    </mxGeometry>
                </mxCell>
                <mxCell id="30" value="" style="group" parent="1" vertex="1" connectable="0">
                    <mxGeometry x="50" y="4350" width="90" height="44.99666666666667" as="geometry"/>
                </mxCell>
                <mxCell id="31" value="" style="rounded=0;whiteSpace=wrap;html=1;shadow=0;" parent="30" vertex="1">
                    <mxGeometry width="90" height="41.75" as="geometry"/>
                </mxCell>
                <mxCell id="32" value="&lt;div&gt;Book&lt;/div&gt;" style="text;html=1;align=center;verticalAlign=middle;resizable=0;points=[];autosize=1;strokeColor=none;fillColor=none;" parent="30" vertex="1">
                    <mxGeometry x="20" y="14.996666666666666" width="50" height="30" as="geometry"/>
                </mxCell>
                <mxCell id="33" value="" style="group" parent="1" vertex="1" connectable="0">
                    <mxGeometry x="160" y="4350" width="90" height="44.99666666666667" as="geometry"/>
                </mxCell>
                <mxCell id="34" value="" style="rounded=0;whiteSpace=wrap;html=1;shadow=0;" parent="33" vertex="1">
                    <mxGeometry width="90" height="41.75" as="geometry"/>
                </mxCell>
                <mxCell id="35" value="&lt;div&gt;Loan&lt;/div&gt;" style="text;html=1;align=center;verticalAlign=middle;resizable=0;points=[];autosize=1;strokeColor=none;fillColor=none;" parent="33" vertex="1">
                    <mxGeometry x="20" y="14.996666666666666" width="50" height="30" as="geometry"/>
                </mxCell>
                <mxCell id="36" value="" style="group" parent="1" vertex="1" connectable="0">
                    <mxGeometry x="280" y="4350" width="90" height="44.99666666666667" as="geometry"/>
                </mxCell>
                <mxCell id="37" value="" style="rounded=0;whiteSpace=wrap;html=1;shadow=0;" parent="36" vertex="1">
                    <mxGeometry width="90" height="41.75" as="geometry"/>
                </mxCell>
                <mxCell id="38" value="Admin" style="text;html=1;align=center;verticalAlign=middle;resizable=0;points=[];autosize=1;strokeColor=none;fillColor=none;" parent="36" vertex="1">
                    <mxGeometry x="15" y="14.996666666666666" width="60" height="30" as="geometry"/>
                </mxCell>
                <mxCell id="39" value="&lt;font style=&quot;font-size: 8px;&quot;&gt;Check_availablity()&lt;/font&gt;" style="text;html=1;align=center;verticalAlign=middle;resizable=0;points=[];autosize=1;strokeColor=none;fillColor=none;" parent="1" vertex="1">
                    <mxGeometry x="20" y="4410" width="90" height="30" as="geometry"/>
                </mxCell>
                <mxCell id="40" value="" style="edgeStyle=orthogonalEdgeStyle;orthogonalLoop=1;jettySize=auto;html=1;curved=1;" parent="1" edge="1">
                    <mxGeometry width="80" relative="1" as="geometry">
                        <mxPoint x="100" y="4420" as="sourcePoint"/>
                        <mxPoint x="100" y="4440" as="targetPoint"/>
                        <Array as="points">
                            <mxPoint x="140" y="4420"/>
                            <mxPoint x="140" y="4440"/>
                        </Array>
                    </mxGeometry>
                </mxCell>
                <mxCell id="41" value="" style="edgeStyle=none;orthogonalLoop=1;jettySize=auto;html=1;" parent="1" edge="1">
                    <mxGeometry width="80" relative="1" as="geometry">
                        <mxPoint x="331" y="4560" as="sourcePoint"/>
                        <mxPoint x="-30" y="4560" as="targetPoint"/>
                        <Array as="points"/>
                    </mxGeometry>
                </mxCell>
                <mxCell id="43" value="&lt;span style=&quot;font-size: 8px;&quot;&gt;Create_loan_record()&lt;/span&gt;" style="text;html=1;align=center;verticalAlign=middle;resizable=0;points=[];autosize=1;strokeColor=none;fillColor=none;" parent="1" vertex="1">
                    <mxGeometry x="111" y="4434" width="100" height="30" as="geometry"/>
                </mxCell>
                <mxCell id="44" value="&lt;font style=&quot;font-size: 8px;&quot;&gt;Notify_New_Request()&lt;/font&gt;" style="text;html=1;align=center;verticalAlign=middle;resizable=0;points=[];autosize=1;strokeColor=none;fillColor=none;" parent="1" vertex="1">
                    <mxGeometry x="218" y="4500" width="100" height="30" as="geometry"/>
                </mxCell>
                <mxCell id="45" value="&lt;font style=&quot;font-size: 8px;&quot;&gt;approval_pending()&lt;/font&gt;" style="text;html=1;align=center;verticalAlign=middle;resizable=0;points=[];autosize=1;strokeColor=none;fillColor=none;" parent="1" vertex="1">
                    <mxGeometry x="-25" y="4530" width="90" height="30" as="geometry"/>
                </mxCell>
                <mxCell id="47" value="&lt;font style=&quot;font-size: 18px;&quot;&gt;&lt;b style=&quot;&quot;&gt;Request Borrow&lt;/b&gt;&lt;/font&gt;" style="text;html=1;align=center;verticalAlign=middle;resizable=0;points=[];autosize=1;strokeColor=none;fillColor=none;" parent="1" vertex="1">
                    <mxGeometry x="-120" y="4295" width="160" height="40" as="geometry"/>
                </mxCell>
                <mxCell id="48" value="" style="edgeStyle=none;orthogonalLoop=1;jettySize=auto;html=1;dashed=1;endArrow=none;endFill=0;" parent="1" edge="1">
                    <mxGeometry width="80" relative="1" as="geometry">
                        <mxPoint x="-40.799999999999955" y="4744.25" as="sourcePoint"/>
                        <mxPoint x="-40.5" y="4915" as="targetPoint"/>
                        <Array as="points"/>
                    </mxGeometry>
                </mxCell>
                <mxCell id="49" value="" style="edgeStyle=none;orthogonalLoop=1;jettySize=auto;html=1;dashed=1;endArrow=none;endFill=0;" parent="1" edge="1">
                    <mxGeometry width="80" relative="1" as="geometry">
                        <mxPoint x="198.18000000000006" y="4744.87" as="sourcePoint"/>
                        <mxPoint x="200.5" y="4915" as="targetPoint"/>
                        <Array as="points"/>
                    </mxGeometry>
                </mxCell>
                <mxCell id="50" value="" style="edgeStyle=none;orthogonalLoop=1;jettySize=auto;html=1;dashed=1;endArrow=none;endFill=0;" parent="1" edge="1">
                    <mxGeometry width="80" relative="1" as="geometry">
                        <mxPoint x="319" y="4742.75" as="sourcePoint"/>
                        <mxPoint x="319.5" y="4915" as="targetPoint"/>
                        <Array as="points"/>
                    </mxGeometry>
                </mxCell>
                <mxCell id="51" value="&lt;font style=&quot;font-size: 8px;&quot;&gt;Return_book()&lt;/font&gt;" style="text;html=1;align=center;verticalAlign=middle;resizable=0;points=[];autosize=1;strokeColor=none;fillColor=none;" parent="1" vertex="1">
                    <mxGeometry x="-30" y="4733.25" width="70" height="30" as="geometry"/>
                </mxCell>
                <mxCell id="52" value="" style="edgeStyle=none;orthogonalLoop=1;jettySize=auto;html=1;entryX=0.695;entryY=-0.044;entryDx=0;entryDy=0;entryPerimeter=0;" parent="1" edge="1">
                    <mxGeometry width="80" relative="1" as="geometry">
                        <mxPoint x="-37.5" y="4757.25" as="sourcePoint"/>
                        <mxPoint x="197.54999999999995" y="4756.68" as="targetPoint"/>
                        <Array as="points"/>
                    </mxGeometry>
                </mxCell>
                <mxCell id="53" value="" style="edgeStyle=none;orthogonalLoop=1;jettySize=auto;html=1;" parent="1" edge="1">
                    <mxGeometry width="80" relative="1" as="geometry">
                        <mxPoint x="201" y="4787" as="sourcePoint"/>
                        <mxPoint x="90" y="4787" as="targetPoint"/>
                        <Array as="points"/>
                    </mxGeometry>
                </mxCell>
                <mxCell id="54" value="" style="edgeStyle=none;orthogonalLoop=1;jettySize=auto;html=1;" parent="1" edge="1">
                    <mxGeometry width="80" relative="1" as="geometry">
                        <mxPoint x="-40" y="4820" as="sourcePoint"/>
                        <mxPoint x="200" y="4820" as="targetPoint"/>
                        <Array as="points"/>
                    </mxGeometry>
                </mxCell>
                <mxCell id="55" value="" style="edgeStyle=none;orthogonalLoop=1;jettySize=auto;html=1;" parent="1" edge="1">
                    <mxGeometry width="80" relative="1" as="geometry">
                        <mxPoint x="199.75" y="4847" as="sourcePoint"/>
                        <mxPoint x="320.25" y="4847" as="targetPoint"/>
                        <Array as="points"/>
                    </mxGeometry>
                </mxCell>
                <mxCell id="56" value="" style="group" parent="1" vertex="1" connectable="0">
                    <mxGeometry x="-80" y="4695" width="90" height="44.99666666666667" as="geometry"/>
                </mxCell>
                <mxCell id="57" value="" style="rounded=0;whiteSpace=wrap;html=1;shadow=0;" parent="56" vertex="1">
                    <mxGeometry width="90" height="41.75" as="geometry"/>
                </mxCell>
                <mxCell id="58" value="&lt;div&gt;Reader&lt;/div&gt;" style="text;html=1;align=center;verticalAlign=middle;resizable=0;points=[];autosize=1;strokeColor=none;fillColor=none;" parent="56" vertex="1">
                    <mxGeometry x="15" y="14.996666666666666" width="60" height="30" as="geometry"/>
                </mxCell>
                <mxCell id="59" value="" style="edgeStyle=orthogonalEdgeStyle;orthogonalLoop=1;jettySize=auto;html=1;dashed=1;endArrow=none;endFill=0;curved=1;" parent="1" edge="1">
                    <mxGeometry width="80" relative="1" as="geometry">
                        <mxPoint x="90.5" y="4733.25" as="sourcePoint"/>
                        <mxPoint x="91" y="4905.5" as="targetPoint"/>
                    </mxGeometry>
                </mxCell>
                <mxCell id="60" value="" style="group" parent="1" vertex="1" connectable="0">
                    <mxGeometry x="40" y="4695" width="90" height="44.99666666666667" as="geometry"/>
                </mxCell>
                <mxCell id="61" value="" style="rounded=0;whiteSpace=wrap;html=1;shadow=0;" parent="60" vertex="1">
                    <mxGeometry width="90" height="41.75" as="geometry"/>
                </mxCell>
                <mxCell id="62" value="&lt;div&gt;Book&lt;/div&gt;" style="text;html=1;align=center;verticalAlign=middle;resizable=0;points=[];autosize=1;strokeColor=none;fillColor=none;" parent="60" vertex="1">
                    <mxGeometry x="20" y="14.996666666666666" width="50" height="30" as="geometry"/>
                </mxCell>
                <mxCell id="63" value="" style="group" parent="1" vertex="1" connectable="0">
                    <mxGeometry x="150" y="4695" width="90" height="44.99666666666667" as="geometry"/>
                </mxCell>
                <mxCell id="64" value="" style="rounded=0;whiteSpace=wrap;html=1;shadow=0;" parent="63" vertex="1">
                    <mxGeometry width="90" height="41.75" as="geometry"/>
                </mxCell>
                <mxCell id="65" value="&lt;div&gt;Loan&lt;/div&gt;" style="text;html=1;align=center;verticalAlign=middle;resizable=0;points=[];autosize=1;strokeColor=none;fillColor=none;" parent="63" vertex="1">
                    <mxGeometry x="20" y="14.996666666666666" width="50" height="30" as="geometry"/>
                </mxCell>
                <mxCell id="66" value="" style="group" parent="1" vertex="1" connectable="0">
                    <mxGeometry x="270" y="4695" width="90" height="44.99666666666667" as="geometry"/>
                </mxCell>
                <mxCell id="67" value="" style="rounded=0;whiteSpace=wrap;html=1;shadow=0;" parent="66" vertex="1">
                    <mxGeometry width="90" height="41.75" as="geometry"/>
                </mxCell>
                <mxCell id="68" value="Admin" style="text;html=1;align=center;verticalAlign=middle;resizable=0;points=[];autosize=1;strokeColor=none;fillColor=none;" parent="66" vertex="1">
                    <mxGeometry x="15" y="14.996666666666666" width="60" height="30" as="geometry"/>
                </mxCell>
                <mxCell id="71" value="" style="edgeStyle=none;orthogonalLoop=1;jettySize=auto;html=1;" parent="1" edge="1">
                    <mxGeometry width="80" relative="1" as="geometry">
                        <mxPoint x="200" y="4895" as="sourcePoint"/>
                        <mxPoint x="-40" y="4895" as="targetPoint"/>
                        <Array as="points"/>
                    </mxGeometry>
                </mxCell>
                <mxCell id="72" value="&lt;font style=&quot;font-size: 8px;&quot;&gt;Update_availability()&lt;/font&gt;" style="text;html=1;align=center;verticalAlign=middle;resizable=0;points=[];autosize=1;strokeColor=none;fillColor=none;" parent="1" vertex="1">
                    <mxGeometry x="90" y="4763" width="100" height="30" as="geometry"/>
                </mxCell>
                <mxCell id="73" value="&lt;font style=&quot;font-size: 8px;&quot;&gt;Submit_Request()&lt;/font&gt;" style="text;html=1;align=center;verticalAlign=middle;resizable=0;points=[];autosize=1;strokeColor=none;fillColor=none;" parent="1" vertex="1">
                    <mxGeometry x="95" y="4791" width="90" height="30" as="geometry"/>
                </mxCell>
                <mxCell id="74" value="&lt;font style=&quot;font-size: 8px;&quot;&gt;Notify_Return()&lt;/font&gt;" style="text;html=1;align=center;verticalAlign=middle;resizable=0;points=[];autosize=1;strokeColor=none;fillColor=none;" parent="1" vertex="1">
                    <mxGeometry x="220" y="4817" width="80" height="30" as="geometry"/>
                </mxCell>
                <mxCell id="75" value="&lt;font style=&quot;font-size: 8px;&quot;&gt;return_Confirmed()&lt;/font&gt;" style="text;html=1;align=center;verticalAlign=middle;resizable=0;points=[];autosize=1;strokeColor=none;fillColor=none;" parent="1" vertex="1">
                    <mxGeometry x="-35" y="4865" width="90" height="30" as="geometry"/>
                </mxCell>
                <mxCell id="76" value="&lt;font style=&quot;font-size: 18px;&quot;&gt;&lt;b style=&quot;&quot;&gt;Return Book&lt;/b&gt;&lt;/font&gt;" style="text;html=1;align=center;verticalAlign=middle;resizable=0;points=[];autosize=1;strokeColor=none;fillColor=none;" parent="1" vertex="1">
                    <mxGeometry x="-115" y="4640" width="130" height="40" as="geometry"/>
                </mxCell>
                <mxCell id="78" value="" style="edgeStyle=none;orthogonalLoop=1;jettySize=auto;html=1;" parent="1" edge="1">
                    <mxGeometry width="80" relative="1" as="geometry">
                        <mxPoint x="315.5" y="4879" as="sourcePoint"/>
                        <mxPoint x="204.5" y="4879" as="targetPoint"/>
                        <Array as="points"/>
                    </mxGeometry>
                </mxCell>
                <mxCell id="79" value="&lt;font style=&quot;font-size: 8px;&quot;&gt;Manage_fines_and_payments()&lt;/font&gt;" style="text;html=1;align=center;verticalAlign=middle;resizable=0;points=[];autosize=1;strokeColor=none;fillColor=none;" parent="1" vertex="1">
                    <mxGeometry x="191.5" y="4851" width="140" height="30" as="geometry"/>
                </mxCell>
                <mxCell id="109" value="" style="edgeStyle=none;orthogonalLoop=1;jettySize=auto;html=1;dashed=1;endArrow=none;endFill=0;" parent="1" edge="1">
                    <mxGeometry width="80" relative="1" as="geometry">
                        <mxPoint x="-45.799999999999955" y="5144.25" as="sourcePoint"/>
                        <mxPoint x="-45.5" y="5315" as="targetPoint"/>
                        <Array as="points"/>
                    </mxGeometry>
                </mxCell>
                <mxCell id="110" value="" style="edgeStyle=none;orthogonalLoop=1;jettySize=auto;html=1;dashed=1;endArrow=none;endFill=0;" parent="1" edge="1">
                    <mxGeometry width="80" relative="1" as="geometry">
                        <mxPoint x="193.18000000000006" y="5144.87" as="sourcePoint"/>
                        <mxPoint x="195.5" y="5315" as="targetPoint"/>
                        <Array as="points"/>
                    </mxGeometry>
                </mxCell>
                <mxCell id="111" value="" style="edgeStyle=none;orthogonalLoop=1;jettySize=auto;html=1;dashed=1;endArrow=none;endFill=0;" parent="1" edge="1">
                    <mxGeometry width="80" relative="1" as="geometry">
                        <mxPoint x="314" y="5142.75" as="sourcePoint"/>
                        <mxPoint x="314.5" y="5315" as="targetPoint"/>
                        <Array as="points"/>
                    </mxGeometry>
                </mxCell>
                <mxCell id="112" value="&lt;font style=&quot;font-size: 8px;&quot;&gt;Loan_Book_to_Member()&lt;/font&gt;" style="text;html=1;align=center;verticalAlign=middle;resizable=0;points=[];autosize=1;strokeColor=none;fillColor=none;" parent="1" vertex="1">
                    <mxGeometry x="-43" y="5133.25" width="110" height="30" as="geometry"/>
                </mxCell>
                <mxCell id="113" value="" style="edgeStyle=none;orthogonalLoop=1;jettySize=auto;html=1;" parent="1" edge="1">
                    <mxGeometry width="80" relative="1" as="geometry">
                        <mxPoint x="-42.5" y="5157.25" as="sourcePoint"/>
                        <mxPoint x="90" y="5157" as="targetPoint"/>
                        <Array as="points"/>
                    </mxGeometry>
                </mxCell>
                <mxCell id="115" value="" style="edgeStyle=none;orthogonalLoop=1;jettySize=auto;html=1;" parent="1" edge="1">
                    <mxGeometry width="80" relative="1" as="geometry">
                        <mxPoint x="-45" y="5237" as="sourcePoint"/>
                        <mxPoint x="195" y="5237" as="targetPoint"/>
                        <Array as="points"/>
                    </mxGeometry>
                </mxCell>
                <mxCell id="116" value="" style="edgeStyle=none;orthogonalLoop=1;jettySize=auto;html=1;" parent="1" edge="1">
                    <mxGeometry width="80" relative="1" as="geometry">
                        <mxPoint x="194.75" y="5270" as="sourcePoint"/>
                        <mxPoint x="315.25" y="5270" as="targetPoint"/>
                        <Array as="points"/>
                    </mxGeometry>
                </mxCell>
                <mxCell id="117" value="" style="group" parent="1" vertex="1" connectable="0">
                    <mxGeometry x="-85" y="5095" width="90" height="44.99666666666667" as="geometry"/>
                </mxCell>
                <mxCell id="118" value="" style="rounded=0;whiteSpace=wrap;html=1;shadow=0;" parent="117" vertex="1">
                    <mxGeometry width="90" height="41.75" as="geometry"/>
                </mxCell>
                <mxCell id="119" value="&lt;div&gt;Admin&lt;/div&gt;" style="text;html=1;align=center;verticalAlign=middle;resizable=0;points=[];autosize=1;strokeColor=none;fillColor=none;" parent="117" vertex="1">
                    <mxGeometry x="15" y="14.996666666666666" width="60" height="30" as="geometry"/>
                </mxCell>
                <mxCell id="120" value="" style="edgeStyle=orthogonalEdgeStyle;orthogonalLoop=1;jettySize=auto;html=1;dashed=1;endArrow=none;endFill=0;curved=1;" parent="1" edge="1">
                    <mxGeometry width="80" relative="1" as="geometry">
                        <mxPoint x="85.5" y="5133.25" as="sourcePoint"/>
                        <mxPoint x="86" y="5320" as="targetPoint"/>
                    </mxGeometry>
                </mxCell>
                <mxCell id="121" value="" style="group" parent="1" vertex="1" connectable="0">
                    <mxGeometry x="35" y="5095" width="90" height="44.99666666666667" as="geometry"/>
                </mxCell>
                <mxCell id="122" value="" style="rounded=0;whiteSpace=wrap;html=1;shadow=0;" parent="121" vertex="1">
                    <mxGeometry width="90" height="41.75" as="geometry"/>
                </mxCell>
                <mxCell id="123" value="&lt;div&gt;Book&lt;/div&gt;" style="text;html=1;align=center;verticalAlign=middle;resizable=0;points=[];autosize=1;strokeColor=none;fillColor=none;" parent="121" vertex="1">
                    <mxGeometry x="20" y="14.996666666666666" width="50" height="30" as="geometry"/>
                </mxCell>
                <mxCell id="124" value="" style="group" parent="1" vertex="1" connectable="0">
                    <mxGeometry x="145" y="5095" width="90" height="44.99666666666667" as="geometry"/>
                </mxCell>
                <mxCell id="125" value="" style="rounded=0;whiteSpace=wrap;html=1;shadow=0;" parent="124" vertex="1">
                    <mxGeometry width="90" height="41.75" as="geometry"/>
                </mxCell>
                <mxCell id="126" value="&lt;div&gt;Loan&lt;/div&gt;" style="text;html=1;align=center;verticalAlign=middle;resizable=0;points=[];autosize=1;strokeColor=none;fillColor=none;" parent="124" vertex="1">
                    <mxGeometry x="20" y="14.996666666666666" width="50" height="30" as="geometry"/>
                </mxCell>
                <mxCell id="127" value="" style="group" parent="1" vertex="1" connectable="0">
                    <mxGeometry x="265" y="5095" width="90" height="44.99666666666667" as="geometry"/>
                </mxCell>
                <mxCell id="128" value="" style="rounded=0;whiteSpace=wrap;html=1;shadow=0;" parent="127" vertex="1">
                    <mxGeometry width="90" height="41.75" as="geometry"/>
                </mxCell>
                <mxCell id="129" value="Reader" style="text;html=1;align=center;verticalAlign=middle;resizable=0;points=[];autosize=1;strokeColor=none;fillColor=none;" parent="127" vertex="1">
                    <mxGeometry x="15" y="14.996666666666666" width="60" height="30" as="geometry"/>
                </mxCell>
                <mxCell id="130" value="" style="edgeStyle=none;orthogonalLoop=1;jettySize=auto;html=1;" parent="1" edge="1">
                    <mxGeometry width="80" relative="1" as="geometry">
                        <mxPoint x="195" y="5309" as="sourcePoint"/>
                        <mxPoint x="-45" y="5309" as="targetPoint"/>
                        <Array as="points"/>
                    </mxGeometry>
                </mxCell>
                <mxCell id="133" value="&lt;span style=&quot;font-size: 8px;&quot;&gt;Boorowing_history()&lt;/span&gt;" style="text;html=1;align=center;verticalAlign=middle;resizable=0;points=[];autosize=1;strokeColor=none;fillColor=none;" parent="1" vertex="1">
                    <mxGeometry x="223" y="5244" width="90" height="30" as="geometry"/>
                </mxCell>
                <mxCell id="134" value="&lt;font style=&quot;font-size: 8px;&quot;&gt;loan Confirmed&lt;/font&gt;" style="text;html=1;align=center;verticalAlign=middle;resizable=0;points=[];autosize=1;strokeColor=none;fillColor=none;" parent="1" vertex="1">
                    <mxGeometry x="-43" y="5285" width="80" height="30" as="geometry"/>
                </mxCell>
                <mxCell id="135" value="&lt;font style=&quot;font-size: 18px;&quot;&gt;&lt;b style=&quot;&quot;&gt;Loan Book To Reader&lt;/b&gt;&lt;/font&gt;" style="text;html=1;align=center;verticalAlign=middle;resizable=0;points=[];autosize=1;strokeColor=none;fillColor=none;" parent="1" vertex="1">
                    <mxGeometry x="-160" y="5040" width="210" height="40" as="geometry"/>
                </mxCell>
                <mxCell id="140" value="" style="edgeStyle=orthogonalEdgeStyle;orthogonalLoop=1;jettySize=auto;html=1;curved=1;" parent="1" edge="1">
                    <mxGeometry width="80" relative="1" as="geometry">
                        <mxPoint x="85" y="5163.25" as="sourcePoint"/>
                        <mxPoint x="85" y="5183.25" as="targetPoint"/>
                        <Array as="points">
                            <mxPoint x="110" y="5163"/>
                            <mxPoint x="110" y="5183"/>
                        </Array>
                    </mxGeometry>
                </mxCell>
                <mxCell id="141" value="" style="edgeStyle=orthogonalEdgeStyle;orthogonalLoop=1;jettySize=auto;html=1;curved=1;" parent="1" edge="1">
                    <mxGeometry width="80" relative="1" as="geometry">
                        <mxPoint x="86" y="5194" as="sourcePoint"/>
                        <mxPoint x="86" y="5214" as="targetPoint"/>
                        <Array as="points">
                            <mxPoint x="111" y="5193.75"/>
                            <mxPoint x="111" y="5213.75"/>
                        </Array>
                    </mxGeometry>
                </mxCell>
                <mxCell id="142" value="&lt;font style=&quot;font-size: 8px;&quot;&gt;Get_Book_Detailes()&lt;/font&gt;" style="text;html=1;align=center;verticalAlign=middle;resizable=0;points=[];autosize=1;strokeColor=none;fillColor=none;" parent="1" vertex="1">
                    <mxGeometry x="7" y="5155" width="100" height="30" as="geometry"/>
                </mxCell>
                <mxCell id="143" value="&lt;font style=&quot;font-size: 8px;&quot;&gt;Update_Availablity()&lt;/font&gt;" style="text;html=1;align=center;verticalAlign=middle;resizable=0;points=[];autosize=1;strokeColor=none;fillColor=none;" parent="1" vertex="1">
                    <mxGeometry x="10" y="5185" width="90" height="30" as="geometry"/>
                </mxCell>
                <mxCell id="144" value="&lt;font style=&quot;font-size: 8px;&quot;&gt;Craete_Loan_Record()&lt;/font&gt;" style="text;html=1;align=center;verticalAlign=middle;resizable=0;points=[];autosize=1;strokeColor=none;fillColor=none;" parent="1" vertex="1">
                    <mxGeometry x="81.5" y="5212" width="110" height="30" as="geometry"/>
                </mxCell>
                <mxCell id="145" value="" style="edgeStyle=orthogonalEdgeStyle;orthogonalLoop=1;jettySize=auto;html=1;curved=1;" parent="1" edge="1">
                    <mxGeometry width="80" relative="1" as="geometry">
                        <mxPoint x="192.49" y="5242" as="sourcePoint"/>
                        <mxPoint x="192.49" y="5262" as="targetPoint"/>
                        <Array as="points">
                            <mxPoint x="217.49" y="5241.75"/>
                            <mxPoint x="217.49" y="5261.75"/>
                        </Array>
                    </mxGeometry>
                </mxCell>
                <mxCell id="146" value="&lt;font style=&quot;font-size: 8px;&quot;&gt;Add_Borrowing_Date()&lt;/font&gt;" style="text;html=1;align=center;verticalAlign=middle;resizable=0;points=[];autosize=1;strokeColor=none;fillColor=none;" parent="1" vertex="1">
                    <mxGeometry x="101" y="5235" width="100" height="30" as="geometry"/>
                </mxCell>
                <mxCell id="148" value="" style="edgeStyle=none;orthogonalLoop=1;jettySize=auto;html=1;dashed=1;endArrow=none;endFill=0;" parent="1" edge="1">
                    <mxGeometry width="80" relative="1" as="geometry">
                        <mxPoint x="-45.799999999999955" y="5534.25" as="sourcePoint"/>
                        <mxPoint x="-45.5" y="5705" as="targetPoint"/>
                        <Array as="points"/>
                    </mxGeometry>
                </mxCell>
                <mxCell id="149" value="" style="edgeStyle=none;orthogonalLoop=1;jettySize=auto;html=1;dashed=1;endArrow=none;endFill=0;" parent="1" edge="1">
                    <mxGeometry width="80" relative="1" as="geometry">
                        <mxPoint x="193.18000000000006" y="5534.87" as="sourcePoint"/>
                        <mxPoint x="195.5" y="5705" as="targetPoint"/>
                        <Array as="points"/>
                    </mxGeometry>
                </mxCell>
                <mxCell id="151" value="&lt;font style=&quot;font-size: 8px;&quot;&gt;Add_Member()&lt;/font&gt;" style="text;html=1;align=center;verticalAlign=middle;resizable=0;points=[];autosize=1;strokeColor=none;fillColor=none;" parent="1" vertex="1">
                    <mxGeometry x="-28" y="5523.25" width="80" height="30" as="geometry"/>
                </mxCell>
                <mxCell id="152" value="" style="edgeStyle=none;orthogonalLoop=1;jettySize=auto;html=1;" parent="1" edge="1">
                    <mxGeometry width="80" relative="1" as="geometry">
                        <mxPoint x="-42.5" y="5547.25" as="sourcePoint"/>
                        <mxPoint x="90" y="5547" as="targetPoint"/>
                        <Array as="points"/>
                    </mxGeometry>
                </mxCell>
                <mxCell id="153" value="" style="edgeStyle=none;orthogonalLoop=1;jettySize=auto;html=1;exitX=0.031;exitY=0.791;exitDx=0;exitDy=0;exitPerimeter=0;" parent="1" source="177" edge="1">
                    <mxGeometry width="80" relative="1" as="geometry">
                        <mxPoint x="-45" y="5627" as="sourcePoint"/>
                        <mxPoint x="195" y="5600" as="targetPoint"/>
                        <Array as="points"/>
                    </mxGeometry>
                </mxCell>
                <mxCell id="155" value="" style="group" parent="1" vertex="1" connectable="0">
                    <mxGeometry x="-85" y="5485" width="90" height="44.99666666666667" as="geometry"/>
                </mxCell>
                <mxCell id="156" value="" style="rounded=0;whiteSpace=wrap;html=1;shadow=0;" parent="155" vertex="1">
                    <mxGeometry width="90" height="41.75" as="geometry"/>
                </mxCell>
                <mxCell id="157" value="&lt;div&gt;Admin&lt;/div&gt;" style="text;html=1;align=center;verticalAlign=middle;resizable=0;points=[];autosize=1;strokeColor=none;fillColor=none;" parent="155" vertex="1">
                    <mxGeometry x="15" y="14.996666666666666" width="60" height="30" as="geometry"/>
                </mxCell>
                <mxCell id="158" value="" style="edgeStyle=orthogonalEdgeStyle;orthogonalLoop=1;jettySize=auto;html=1;dashed=1;endArrow=none;endFill=0;curved=1;" parent="1" edge="1">
                    <mxGeometry width="80" relative="1" as="geometry">
                        <mxPoint x="85.5" y="5523.25" as="sourcePoint"/>
                        <mxPoint x="86" y="5710" as="targetPoint"/>
                    </mxGeometry>
                </mxCell>
                <mxCell id="159" value="" style="group" parent="1" vertex="1" connectable="0">
                    <mxGeometry x="35" y="5485" width="90" height="44.99666666666667" as="geometry"/>
                </mxCell>
                <mxCell id="160" value="" style="rounded=0;whiteSpace=wrap;html=1;shadow=0;" parent="159" vertex="1">
                    <mxGeometry width="90" height="41.75" as="geometry"/>
                </mxCell>
                <mxCell id="161" value="&lt;div&gt;User&lt;/div&gt;" style="text;html=1;align=center;verticalAlign=middle;resizable=0;points=[];autosize=1;strokeColor=none;fillColor=none;" parent="159" vertex="1">
                    <mxGeometry x="20" y="14.996666666666666" width="50" height="30" as="geometry"/>
                </mxCell>
                <mxCell id="162" value="" style="group" parent="1" vertex="1" connectable="0">
                    <mxGeometry x="145" y="5485" width="90" height="44.99666666666667" as="geometry"/>
                </mxCell>
                <mxCell id="163" value="" style="rounded=0;whiteSpace=wrap;html=1;shadow=0;" parent="162" vertex="1">
                    <mxGeometry width="90" height="41.75" as="geometry"/>
                </mxCell>
                <mxCell id="164" value="&lt;div&gt;Reader&lt;/div&gt;" style="text;html=1;align=center;verticalAlign=middle;resizable=0;points=[];autosize=1;strokeColor=none;fillColor=none;" parent="162" vertex="1">
                    <mxGeometry x="15" y="14.996666666666666" width="60" height="30" as="geometry"/>
                </mxCell>
                <mxCell id="168" value="" style="edgeStyle=none;orthogonalLoop=1;jettySize=auto;html=1;" parent="1" edge="1">
                    <mxGeometry width="80" relative="1" as="geometry">
                        <mxPoint x="88" y="5687" as="sourcePoint"/>
                        <mxPoint x="-47" y="5687" as="targetPoint"/>
                        <Array as="points"/>
                    </mxGeometry>
                </mxCell>
                <mxCell id="170" value="&lt;font style=&quot;font-size: 8px;&quot;&gt;Member_added()&lt;/font&gt;" style="text;html=1;align=center;verticalAlign=middle;resizable=0;points=[];autosize=1;strokeColor=none;fillColor=none;" parent="1" vertex="1">
                    <mxGeometry x="-22" y="5659" width="80" height="30" as="geometry"/>
                </mxCell>
                <mxCell id="171" value="&lt;font style=&quot;font-size: 18px;&quot;&gt;&lt;b style=&quot;&quot;&gt;Add New Reader&lt;/b&gt;&lt;/font&gt;" style="text;html=1;align=center;verticalAlign=middle;resizable=0;points=[];autosize=1;strokeColor=none;fillColor=none;" parent="1" vertex="1">
                    <mxGeometry x="-140" y="5430" width="170" height="40" as="geometry"/>
                </mxCell>
                <mxCell id="173" value="" style="edgeStyle=orthogonalEdgeStyle;orthogonalLoop=1;jettySize=auto;html=1;curved=1;" parent="1" edge="1">
                    <mxGeometry width="80" relative="1" as="geometry">
                        <mxPoint x="85" y="5553.25" as="sourcePoint"/>
                        <mxPoint x="85" y="5573.25" as="targetPoint"/>
                        <Array as="points">
                            <mxPoint x="110" y="5553"/>
                            <mxPoint x="110" y="5573"/>
                        </Array>
                    </mxGeometry>
                </mxCell>
                <mxCell id="175" value="&lt;font style=&quot;font-size: 8px;&quot;&gt;Create_account()&lt;/font&gt;" style="text;html=1;align=center;verticalAlign=middle;resizable=0;points=[];autosize=1;strokeColor=none;fillColor=none;" parent="1" vertex="1">
                    <mxGeometry x="12" y="5545" width="90" height="30" as="geometry"/>
                </mxCell>
                <mxCell id="177" value="&lt;font style=&quot;font-size: 8px;&quot;&gt;Create_Reader_Profile()&lt;/font&gt;" style="text;html=1;align=center;verticalAlign=middle;resizable=0;points=[];autosize=1;strokeColor=none;fillColor=none;" parent="1" vertex="1">
                    <mxGeometry x="81.5" y="5577" width="110" height="30" as="geometry"/>
                </mxCell>
                <mxCell id="181" value="&lt;font style=&quot;font-size: 8px;&quot;&gt;Edit_member()&lt;/font&gt;" style="text;html=1;align=center;verticalAlign=middle;resizable=0;points=[];autosize=1;strokeColor=none;fillColor=none;" parent="1" vertex="1">
                    <mxGeometry x="-20" y="5620" width="80" height="30" as="geometry"/>
                </mxCell>
                <mxCell id="182" value="" style="edgeStyle=none;orthogonalLoop=1;jettySize=auto;html=1;" parent="1" edge="1">
                    <mxGeometry width="80" relative="1" as="geometry">
                        <mxPoint x="-46.25" y="5650.25" as="sourcePoint"/>
                        <mxPoint x="86.25" y="5650" as="targetPoint"/>
                        <Array as="points"/>
                    </mxGeometry>
                </mxCell>
                <mxCell id="183" value="" style="edgeStyle=orthogonalEdgeStyle;orthogonalLoop=1;jettySize=auto;html=1;curved=1;" edge="1" parent="1">
                    <mxGeometry width="80" relative="1" as="geometry">
                        <mxPoint x="209.97" y="4474" as="sourcePoint"/>
                        <mxPoint x="209.97" y="4494" as="targetPoint"/>
                        <Array as="points">
                            <mxPoint x="249.97" y="4474"/>
                            <mxPoint x="249.97" y="4494"/>
                        </Array>
                    </mxGeometry>
                </mxCell>
                <mxCell id="184" value="&lt;span style=&quot;font-size: 8px;&quot;&gt;Generate_loan_id()&lt;/span&gt;" style="text;html=1;align=center;verticalAlign=middle;resizable=0;points=[];autosize=1;strokeColor=none;fillColor=none;" vertex="1" parent="1">
                    <mxGeometry x="151" y="4468" width="90" height="30" as="geometry"/>
                </mxCell>
                <mxCell id="185" value="" style="edgeStyle=none;orthogonalLoop=1;jettySize=auto;html=1;" edge="1" parent="1">
                    <mxGeometry width="80" relative="1" as="geometry">
                        <mxPoint x="206" y="4510" as="sourcePoint"/>
                        <mxPoint x="103" y="4510" as="targetPoint"/>
                        <Array as="points"/>
                    </mxGeometry>
                </mxCell>
                <mxCell id="186" value="&lt;span style=&quot;font-size: 8px;&quot;&gt;Update_availability()&lt;/span&gt;" style="text;html=1;align=center;verticalAlign=middle;resizable=0;points=[];autosize=1;strokeColor=none;fillColor=none;" vertex="1" parent="1">
                    <mxGeometry x="110" y="4486" width="100" height="30" as="geometry"/>
                </mxCell>
            </root>
        </mxGraphModel>
    </diagram>
</mxfile>